<?xml version="1.0" standalone="no"?>
<!DOCTYPE svg PUBLIC "-//W3C//DTD SVG 20010904//EN"
 "http://www.w3.org/TR/2001/REC-SVG-20010904/DTD/svg10.dtd">
<svg version="1.0" xmlns="http://www.w3.org/2000/svg"
 width="114.000000pt" height="114.000000pt" viewBox="0 0 114.000000 114.000000"
 preserveAspectRatio="xMidYMid meet">
<metadata>
Created by potrace 1.11, written by Peter Selinger 2001-2013
</metadata>
<g transform="translate(0.000000,114.000000) scale(0.100000,-0.100000)"
fill="#000000" stroke="none">
<path d="M60 570 l0 -510 510 0 510 0 0 510 0 510 -510 0 -510 0 0 -510z m94
214 c9 -8 16 -21 16 -27 0 -8 -4 -7 -9 2 -5 8 -22 20 -38 27 -25 11 -25 12 -6
13 12 1 29 -6 37 -15z m313 -12 c23 -12 45 -27 49 -33 4 -6 -15 1 -42 17 -42
25 -59 29 -125 29 -42 0 -72 4 -66 8 22 15 140 1 184 -21z m86 -82 c10 -16 16
-30 14 -30 -2 0 -13 14 -25 30 -13 17 -19 30 -14 30 4 0 16 -13 25 -30z m24
-82 c-3 -8 -6 -5 -6 6 -1 11 2 17 5 13 3 -3 4 -12 1 -19z m173 1 c0 -4 -7 -6
-15 -3 -8 4 -15 10 -15 15 0 4 7 6 15 3 8 -4 15 -10 15 -15z m196 -11 l19 -21
-27 18 c-17 10 -40 16 -58 13 -16 -3 -30 -1 -30 4 0 4 17 8 38 8 27 0 45 -7
58 -22z m61 -49 c-14 -8 -22 -8 -30 0 -8 8 -3 11 19 11 25 -1 27 -2 11 -11z
m-97 -93 c0 -2 3 -13 6 -23 6 -17 6 -17 -8 1 -10 13 -22 17 -37 13 -11 -3 -21
-1 -21 4 0 5 14 9 30 9 17 0 30 -2 30 -4z m55 -56 c-3 -5 -12 -7 -20 -3 -21 7
-19 13 6 13 11 0 18 -4 14 -10z m-351 -49 c-63 -58 -129 -79 -254 -82 -136 -2
-136 4 0 10 109 5 132 10 180 33 31 15 69 41 85 58 16 16 31 30 34 30 3 -1
-17 -22 -45 -49z m-384 -70 c0 -10 -128 -7 -138 3 -3 3 27 6 66 6 40 0 72 -4
72 -9z m800 -3 c0 -8 -329 -2 -338 7 -4 4 71 5 165 4 95 -2 173 -7 173 -11z"/>
</g>
</svg>
