<?xml version="1.0" standalone="no"?>
<!DOCTYPE svg PUBLIC "-//W3C//DTD SVG 20010904//EN"
 "http://www.w3.org/TR/2001/REC-SVG-20010904/DTD/svg10.dtd">
<svg version="1.0" xmlns="http://www.w3.org/2000/svg"
 width="114.000000pt" height="114.000000pt" viewBox="0 0 114.000000 114.000000"
 preserveAspectRatio="xMidYMid meet">
<metadata>
Created by potrace 1.11, written by Peter Selinger 2001-2013
</metadata>
<g transform="translate(0.000000,114.000000) scale(0.100000,-0.100000)"
fill="#000000" stroke="none">
<path d="M456 957 c-20 -21 -26 -36 -26 -72 0 -39 3 -46 18 -43 12 2 18 15 20
43 2 22 7 44 12 49 5 5 47 1 97 -9 96 -19 239 -17 325 5 79 20 78 22 78 -154
0 -209 -28 -302 -119 -399 -43 -46 -78 -66 -133 -75 -58 -10 -62 -32 -7 -32
110 0 210 99 272 270 16 44 21 88 25 222 l4 167 -25 25 c-28 28 -48 31 -93 16
-16 -5 -65 -14 -109 -19 -76 -9 -166 -1 -282 24 -26 6 -36 3 -57 -18z"/>
<path d="M156 819 l-28 -33 5 -166 c4 -172 14 -216 65 -315 50 -98 151 -175
230 -175 114 0 237 138 282 316 15 59 20 113 20 210 0 117 -2 134 -20 157 -30
37 -47 39 -135 17 -114 -29 -201 -26 -366 15 -21 6 -31 1 -53 -26z m200 -225
c50 -24 50 -32 0 -55 -52 -22 -96 -19 -136 11 l-24 18 35 21 c41 25 79 27 125
5z m280 0 c39 -19 41 -25 17 -47 -29 -25 -84 -30 -131 -12 -50 21 -53 37 -9
59 41 20 80 20 123 0z m-303 -238 c72 -35 130 -32 207 8 29 15 54 26 56 23 8
-8 -55 -95 -86 -117 -17 -12 -51 -25 -73 -27 -51 -6 -94 20 -144 85 -31 41
-43 69 -25 60 4 -2 33 -17 65 -32z"/>
<path d="M793 743 c-21 -8 -15 -30 18 -57 23 -19 42 -26 74 -26 59 0 66 16 22
57 -35 32 -77 42 -114 26z"/>
<path d="M750 508 c0 -31 5 -35 65 -63 36 -17 65 -30 65 -28 0 12 -54 84 -76
102 -38 30 -54 27 -54 -11z"/>
</g>
</svg>
